<svg xmlns="http://www.w3.org/2000/svg" width="32" height="32" viewBox="0 0 32 32" fill="none">
  <!-- Document body -->
  <rect x="4" y="2" width="20" height="28" rx="3" fill="#161b28" stroke="#ca8a04" stroke-width="1.5"/>
  <!-- Folded corner -->
  <path d="M18 2v6a2 2 0 0 0 2 2h4" fill="none" stroke="#ca8a04" stroke-width="1.5" stroke-linecap="round"/>
  <path d="M18 2l6 6" fill="none" stroke="#ca8a04" stroke-width="1.5" stroke-linecap="round"/>
  <!-- Text lines -->
  <line x1="8" y1="13" x2="18" y2="13" stroke="#ca8a04" stroke-width="1.5" stroke-linecap="round" opacity="0.7"/>
  <line x1="8" y1="17" x2="16" y2="17" stroke="#ca8a04" stroke-width="1.5" stroke-linecap="round" opacity="0.5"/>
  <line x1="8" y1="21" x2="14" y2="21" stroke="#ca8a04" stroke-width="1.5" stroke-linecap="round" opacity="0.3"/>
  <!-- Signature swoosh -->
  <path d="M9 25c2-2 4 1 6-1s3-1 5 0" fill="none" stroke="#ca8a04" stroke-width="1.5" stroke-linecap="round"/>
  <!-- Gold shield overlay -->
  <circle cx="24" cy="24" r="7" fill="#0c0f14"/>
  <path d="M24 18.5l5 2.5v4c0 3-2.5 5-5 6-2.5-1-5-3-5-6v-4l5-2.5z" fill="#ca8a04" opacity="0.9"/>
  <path d="M22 24l1.5 1.5 3-3" fill="none" stroke="#0c0f14" stroke-width="1.8" stroke-linecap="round" stroke-linejoin="round"/>
</svg>
